# xmcd
# 
# Track frame offsets:
#     150
#     18942
#     38080
# 
# Disc length: 756
# 
# Revision: 2
# Processed by: cddbd v1.5.1PL2 Copyright (c) Steve Scherf et al.
# Submitted via: BonkEnc v1.0beta3
# 
DISCID=1702f203
DTITLE=Les enfants sages - Les enfants sages
DYEAR=1995
DGENRE=J-POP
TTITLE0=Amer Café
TTITLE1=Un paradis sur terre
TTITLE2=Matin
EXTD=YEAR: 1995
EXTT0=
EXTT1=
EXTT2=
PLAYORDER=
